<svg width="201" height="74" viewBox="0 0 201 74" fill="none" xmlns="http://www.w3.org/2000/svg">
<rect y="34" width="148" height="40" fill="#A42800"/>
<rect width="66" height="34" fill="#7F7362"/>
<path d="M127.348 67.028C123.964 67.028 121.312 66.32 119.392 64.904C117.472 63.488 116.404 61.436 116.188 58.748L121.084 58.46C121.204 59.948 121.684 61.016 122.524 61.664C123.364 62.288 124.66 62.6 126.412 62.6C128.428 62.6 129.904 62.36 130.84 61.88C131.776 61.4 132.244 60.608 132.244 59.504C132.244 58.592 131.8 57.872 130.912 57.344C130.048 56.792 128.5 56.312 126.268 55.904L122.74 55.256C118.636 54.464 116.584 52.268 116.584 48.668C116.584 46.268 117.412 44.408 119.068 43.088C120.748 41.744 123.064 41.072 126.016 41.072C128.848 41.072 131.176 41.72 133 43.016C134.824 44.288 135.94 46.052 136.348 48.308L131.416 48.632C131.2 47.552 130.684 46.76 129.868 46.256C129.052 45.752 127.852 45.5 126.268 45.5C124.78 45.5 123.64 45.716 122.848 46.148C122.056 46.556 121.66 47.18 121.66 48.02C121.66 48.356 121.732 48.656 121.876 48.92C122.044 49.16 122.32 49.388 122.704 49.604C123.112 49.796 123.652 49.988 124.324 50.18C125.02 50.348 125.884 50.528 126.916 50.72L129.94 51.26C132.412 51.716 134.236 52.592 135.412 53.888C136.588 55.16 137.176 56.888 137.176 59.072C137.176 61.688 136.348 63.668 134.692 65.012C133.036 66.356 130.588 67.028 127.348 67.028Z" fill="#EEE2D8"/>
<path d="M95.5 41.18H114.148V45.86H100.432V51.8H113.86V55.904H100.432V62.06H114.148V66.74H95.5V41.18Z" fill="#EEE2D8"/>
<path d="M64.8086 41.18H72.7646L78.1286 59.36C78.1766 59.504 78.2126 59.636 78.2366 59.756C78.2606 59.876 78.2966 60.02 78.3446 60.188C78.3926 60.02 78.4286 59.876 78.4526 59.756C78.5006 59.636 78.5486 59.504 78.5966 59.36L83.9246 41.18H91.9166L91.8806 66.74H86.9126V48.812C86.9126 48.668 86.9126 48.548 86.9126 48.452C86.9366 48.332 86.9486 48.212 86.9486 48.092C86.9006 48.212 86.8526 48.332 86.8046 48.452C86.7806 48.548 86.7446 48.668 86.6966 48.812L81.2246 66.74H75.4646L70.0646 48.812C70.0166 48.668 69.9686 48.548 69.9206 48.452C69.8726 48.332 69.8126 48.212 69.7406 48.092C69.7646 48.212 69.7766 48.332 69.7766 48.452C69.7766 48.548 69.7766 48.668 69.7766 48.812V66.74H64.8086V41.18Z" fill="#EEE2D8"/>
<path d="M33.9681 53.96C33.9681 51.824 34.3161 49.952 35.0121 48.344C35.7081 46.736 36.6681 45.392 37.8921 44.312C39.1161 43.208 40.5681 42.38 42.2481 41.828C43.9521 41.276 45.7881 41 47.7561 41C49.7481 41 51.5841 41.276 53.2641 41.828C54.9681 42.38 56.4321 43.208 57.6561 44.312C58.8801 45.392 59.8401 46.736 60.5361 48.344C61.2321 49.952 61.5801 51.824 61.5801 53.96C61.5801 56.072 61.2321 57.944 60.5361 59.576C59.8401 61.184 58.8801 62.54 57.6561 63.644C56.4321 64.724 54.9681 65.54 53.2641 66.092C51.5841 66.644 49.7481 66.92 47.7561 66.92C45.7881 66.92 43.9521 66.644 42.2481 66.092C40.5681 65.54 39.1161 64.724 37.8921 63.644C36.6681 62.54 35.7081 61.184 35.0121 59.576C34.3161 57.944 33.9681 56.072 33.9681 53.96ZM38.9721 53.96C38.9721 55.4 39.1881 56.66 39.6201 57.74C40.0761 58.796 40.6881 59.684 41.4561 60.404C42.2481 61.1 43.1841 61.628 44.2641 61.988C45.3441 62.348 46.5201 62.528 47.7921 62.528C49.0641 62.528 50.2281 62.348 51.2841 61.988C52.3641 61.628 53.2881 61.1 54.0561 60.404C54.8481 59.684 55.4601 58.796 55.8921 57.74C56.3241 56.66 56.5401 55.4 56.5401 53.96C56.5401 52.52 56.3241 51.272 55.8921 50.216C55.4601 49.136 54.8481 48.248 54.0561 47.552C53.2881 46.832 52.3641 46.304 51.2841 45.968C50.2281 45.608 49.0641 45.428 47.7921 45.428C46.5201 45.428 45.3441 45.608 44.2641 45.968C43.1841 46.304 42.2481 46.832 41.4561 47.552C40.6881 48.248 40.0761 49.136 39.6201 50.216C39.1881 51.272 38.9721 52.52 38.9721 53.96Z" fill="#EEE2D8"/>
<path d="M10 41.18H14.932V51.44H25.804V41.18H30.736V66.74H25.804V56.084H14.932V66.74H10V41.18Z" fill="#EEE2D8"/>
<path d="M55.1233 21.424C55.1233 22.888 54.8593 24.148 54.3313 25.204C53.8273 26.26 53.1193 27.136 52.2073 27.832C51.2953 28.504 50.2153 29.008 48.9674 29.344C47.7193 29.68 46.3513 29.848 44.8633 29.848C43.3993 29.848 42.0433 29.68 40.7953 29.344C39.5473 29.008 38.4673 28.504 37.5553 27.832C36.6433 27.136 35.9233 26.26 35.3953 25.204C34.8913 24.148 34.6393 22.888 34.6393 21.424L34.6033 4.108H39.5713V19.336C39.5713 20.536 39.7033 21.532 39.9673 22.324C40.2313 23.116 40.6033 23.74 41.0833 24.196C41.5633 24.652 42.1273 24.976 42.7753 25.168C43.4233 25.336 44.1193 25.42 44.8633 25.42C45.6313 25.42 46.3273 25.336 46.9513 25.168C47.5993 24.976 48.1633 24.652 48.6433 24.196C49.1233 23.74 49.4953 23.116 49.7593 22.324C50.0234 21.532 50.1553 20.536 50.1553 19.336V4.108H55.1233V21.424Z" fill="#EBE3DC"/>
<path d="M22.16 29.956C18.776 29.956 16.124 29.248 14.204 27.832C12.284 26.416 11.216 24.364 11 21.676L15.896 21.388C16.016 22.876 16.496 23.944 17.336 24.592C18.176 25.216 19.472 25.528 21.224 25.528C23.24 25.528 24.716 25.288 25.652 24.808C26.588 24.328 27.056 23.536 27.056 22.432C27.056 21.52 26.612 20.8 25.724 20.272C24.86 19.72 23.312 19.24 21.08 18.832L17.552 18.184C13.448 17.392 11.396 15.196 11.396 11.596C11.396 9.196 12.224 7.336 13.88 6.016C15.56 4.672 17.876 4 20.828 4C23.66 4 25.988 4.648 27.812 5.944C29.636 7.216 30.752 8.98 31.16 11.236L26.228 11.56C26.012 10.48 25.496 9.688 24.68 9.184C23.864 8.68 22.664 8.428 21.08 8.428C19.592 8.428 18.452 8.644 17.66 9.076C16.868 9.484 16.472 10.108 16.472 10.948C16.472 11.284 16.544 11.584 16.688 11.848C16.856 12.088 17.132 12.316 17.516 12.532C17.924 12.724 18.464 12.916 19.136 13.108C19.832 13.276 20.696 13.456 21.728 13.648L24.752 14.188C27.224 14.644 29.048 15.52 30.224 16.816C31.4 18.088 31.988 19.816 31.988 22C31.988 24.616 31.16 26.596 29.504 27.94C27.848 29.284 25.4 29.956 22.16 29.956Z" fill="#EBE3DC"/>
<path d="M190.921 56.8C191.241 56.112 191.793 55.56 192.577 55.144C193.361 54.728 194.249 54.52 195.241 54.52C196.121 54.52 196.913 54.672 197.617 54.976C198.337 55.264 198.945 55.688 199.441 56.248C199.937 56.792 200.321 57.456 200.593 58.24C200.865 59.008 201.001 59.872 201.001 60.832C201.001 61.792 200.865 62.664 200.593 63.448C200.321 64.216 199.937 64.872 199.441 65.416C198.945 65.96 198.337 66.384 197.617 66.688C196.913 66.976 196.121 67.12 195.241 67.12C194.233 67.12 193.345 66.92 192.577 66.52C191.809 66.12 191.265 65.56 190.945 64.84H190.921L190.897 71.68H188.425V54.64H190.897L190.921 56.8ZM198.457 60.832C198.457 59.488 198.121 58.416 197.449 57.616C196.777 56.816 195.865 56.416 194.713 56.416C193.561 56.416 192.649 56.816 191.977 57.616C191.305 58.416 190.969 59.488 190.969 60.832C190.969 62.192 191.305 63.264 191.977 64.048C192.649 64.832 193.561 65.224 194.713 65.224C195.865 65.224 196.777 64.832 197.449 64.048C198.121 63.264 198.457 62.192 198.457 60.832Z" fill="#A42800"/>
<path d="M175.78 56.8C176.1 56.112 176.652 55.56 177.436 55.144C178.22 54.728 179.108 54.52 180.1 54.52C180.98 54.52 181.772 54.672 182.476 54.976C183.196 55.264 183.804 55.688 184.3 56.248C184.796 56.792 185.18 57.456 185.452 58.24C185.724 59.008 185.86 59.872 185.86 60.832C185.86 61.792 185.724 62.664 185.452 63.448C185.18 64.216 184.796 64.872 184.3 65.416C183.804 65.96 183.196 66.384 182.476 66.688C181.772 66.976 180.98 67.12 180.1 67.12C179.092 67.12 178.204 66.92 177.436 66.52C176.668 66.12 176.124 65.56 175.804 64.84H175.78L175.756 71.68H173.284V54.64H175.756L175.78 56.8ZM183.316 60.832C183.316 59.488 182.98 58.416 182.308 57.616C181.636 56.816 180.724 56.416 179.572 56.416C178.42 56.416 177.508 56.816 176.836 57.616C176.164 58.416 175.828 59.488 175.828 60.832C175.828 62.192 176.164 63.264 176.836 64.048C177.508 64.832 178.42 65.224 179.572 65.224C180.724 65.224 181.636 64.832 182.308 64.048C182.98 63.264 183.316 62.192 183.316 60.832Z" fill="#A42800"/>
<path d="M167.864 56.8L167.888 54.64H170.36V67H167.888L167.864 64.84H167.84C167.52 65.56 166.968 66.12 166.184 66.52C165.416 66.92 164.536 67.12 163.544 67.12C162.664 67.12 161.864 66.976 161.144 66.688C160.44 66.384 159.832 65.96 159.32 65.416C158.824 64.872 158.44 64.216 158.168 63.448C157.912 62.664 157.784 61.792 157.784 60.832C157.784 59.872 157.92 59.008 158.192 58.24C158.464 57.456 158.848 56.792 159.344 56.248C159.84 55.688 160.44 55.264 161.144 54.976C161.864 54.672 162.664 54.52 163.544 54.52C164.536 54.52 165.416 54.728 166.184 55.144C166.968 55.56 167.52 56.112 167.84 56.8H167.864ZM160.328 60.832C160.328 62.192 160.664 63.264 161.336 64.048C162.008 64.832 162.92 65.224 164.072 65.224C165.224 65.224 166.136 64.832 166.808 64.048C167.48 63.264 167.816 62.192 167.816 60.832C167.816 59.472 167.48 58.4 166.808 57.616C166.136 56.816 165.224 56.416 164.072 56.416C162.92 56.416 162.008 56.816 161.336 57.616C160.664 58.416 160.328 59.488 160.328 60.832Z" fill="#A42800"/>
<path d="M151.728 65.464C151.728 64.952 151.88 64.552 152.184 64.264C152.488 63.96 152.896 63.808 153.408 63.808C153.936 63.808 154.336 63.96 154.608 64.264C154.896 64.552 155.04 64.952 155.04 65.464C155.04 65.976 154.896 66.384 154.608 66.688C154.336 66.976 153.936 67.12 153.408 67.12C152.896 67.12 152.488 66.976 152.184 66.688C151.88 66.384 151.728 65.976 151.728 65.464Z" fill="#A42800"/>
</svg>
